<svg width="1308" height="250" viewBox="0 0 1308 306" fill="none" xmlns="http://www.w3.org/2000/svg">
<g clip-path="url(#clip0_3938_24126)">
<rect x="0.867188" y="41.6387" width="222.503" height="222.503" rx="34.5154" fill="url(#paint0_linear_3938_24126)"/>
<path d="M115.566 75.5218L89.6921 224.422H54.717L80.4881 75.5218H115.566ZM160.972 137.495L156.165 165.107H89.8966L94.7032 137.495H160.972ZM177.335 75.5218L172.528 103.236H100.532L105.441 75.5218H177.335Z" fill="white"/>
</g>
<path d="M287.827 242.391V71.5386H325.821V242.391H287.827ZM316.867 175.357V142.687H402.293V175.357H316.867ZM316.867 104.209V71.5386H406.165V104.209H316.867ZM472.526 244.811C461.717 244.811 452.037 242.149 443.486 236.825C435.097 231.501 428.401 224.241 423.4 215.045C418.56 205.849 416.14 195.362 416.14 183.585C416.14 171.807 418.56 161.321 423.4 152.125C428.401 142.929 435.097 135.669 443.486 130.345C452.037 125.021 461.717 122.359 472.526 122.359C480.431 122.359 487.53 123.891 493.822 126.957C500.275 130.022 505.519 134.297 509.552 139.783C513.585 145.107 515.844 151.237 516.328 158.175V208.995C515.844 215.932 513.585 222.143 509.552 227.629C505.68 232.953 500.517 237.147 494.064 240.213C487.611 243.278 480.431 244.811 472.526 244.811ZM480.028 211.415C487.933 211.415 494.306 208.833 499.146 203.671C503.986 198.347 506.406 191.651 506.406 183.585C506.406 178.099 505.277 173.259 503.018 169.065C500.921 164.87 497.855 161.643 493.822 159.385C489.95 156.965 485.433 155.755 480.27 155.755C475.107 155.755 470.509 156.965 466.476 159.385C462.604 161.643 459.458 164.87 457.038 169.065C454.779 173.259 453.65 178.099 453.65 183.585C453.65 188.909 454.779 193.668 457.038 197.863C459.297 202.057 462.443 205.365 466.476 207.785C470.509 210.205 475.027 211.415 480.028 211.415ZM504.954 242.391V210.689L510.52 182.133L504.954 153.577V124.779H541.254V242.391H504.954ZM610.158 245.295C603.221 245.295 596.364 244.407 589.588 242.633C582.973 240.858 576.762 238.357 570.954 235.131C565.307 231.743 560.467 227.871 556.434 223.515L577.488 202.219C581.36 206.413 585.958 209.721 591.282 212.141C596.606 214.399 602.414 215.529 608.706 215.529C613.062 215.529 616.369 214.883 618.628 213.593C621.048 212.302 622.258 210.527 622.258 208.269C622.258 205.365 620.806 203.187 617.902 201.735C615.159 200.121 611.61 198.75 607.254 197.621C602.898 196.33 598.3 194.959 593.46 193.507C588.62 192.055 584.022 190.038 579.666 187.457C575.31 184.875 571.761 181.326 569.018 176.809C566.275 172.13 564.904 166.241 564.904 159.143C564.904 151.56 566.84 145.026 570.712 139.541C574.584 133.894 580.069 129.457 587.168 126.231C594.267 123.004 602.575 121.391 612.094 121.391C622.097 121.391 631.293 123.165 639.682 126.715C648.233 130.103 655.17 135.185 660.494 141.961L639.44 163.257C635.729 158.901 631.535 155.835 626.856 154.061C622.339 152.286 617.902 151.399 613.546 151.399C609.351 151.399 606.205 152.044 604.108 153.335C602.011 154.464 600.962 156.158 600.962 158.417C600.962 160.837 602.333 162.773 605.076 164.225C607.819 165.677 611.368 166.967 615.724 168.097C620.08 169.226 624.678 170.597 629.518 172.211C634.358 173.824 638.956 176.002 643.312 178.745C647.668 181.487 651.217 185.198 653.96 189.877C656.703 194.394 658.074 200.363 658.074 207.785C658.074 219.239 653.718 228.355 645.006 235.131C636.455 241.907 624.839 245.295 610.158 245.295ZM694.86 242.391V76.1366H731.886V242.391H694.86ZM668.24 156.239V124.779H758.506V156.239H668.24ZM852.502 242.391V175.357C852.502 169.226 850.566 164.305 846.694 160.595C842.983 156.723 838.224 154.787 832.416 154.787C828.383 154.787 824.833 155.674 821.768 157.449C818.703 159.062 816.283 161.482 814.508 164.709C812.733 167.774 811.846 171.323 811.846 175.357L797.568 168.339C797.568 159.143 799.504 151.076 803.376 144.139C807.248 137.201 812.653 131.877 819.59 128.167C826.527 124.295 834.513 122.359 843.548 122.359C852.744 122.359 860.811 124.295 867.748 128.167C874.685 131.877 880.009 137.121 883.72 143.897C887.592 150.511 889.528 158.255 889.528 167.129V242.391H852.502ZM774.82 242.391V66.6986H811.846V242.391H774.82ZM913.308 242.391V124.779H950.334V242.391H913.308ZM950.334 177.777L934.846 165.677C937.912 151.963 943.074 141.315 950.334 133.733C957.594 126.15 967.678 122.359 980.584 122.359C986.231 122.359 991.152 123.246 995.346 125.021C999.702 126.634 1003.49 129.215 1006.72 132.765L984.698 160.595C983.085 158.82 981.068 157.449 978.648 156.481C976.228 155.513 973.486 155.029 970.42 155.029C964.29 155.029 959.369 156.965 955.658 160.837C952.109 164.547 950.334 170.194 950.334 177.777ZM1025.16 245.053C1018.87 245.053 1013.63 242.875 1009.43 238.519C1005.24 234.163 1003.14 228.919 1003.14 222.789C1003.14 216.335 1005.24 211.011 1009.43 206.817C1013.63 202.461 1018.87 200.283 1025.16 200.283C1031.62 200.283 1036.86 202.461 1040.89 206.817C1045.09 211.011 1047.19 216.335 1047.19 222.789C1047.19 228.919 1045.09 234.163 1040.89 238.519C1036.86 242.875 1031.62 245.053 1025.16 245.053Z" fill="white"/>
<path d="M1065.05 242.391L1132.81 71.5386H1167.17L1234.2 242.391H1194.03L1142.73 100.579H1156.52L1104.49 242.391H1065.05ZM1103.52 211.415V180.439H1196.69V211.415H1103.52ZM1252.28 242.391V71.5386H1290.28V242.391H1252.28Z" fill="url(#paint1_linear_3938_24126)"/>
<defs>
<linearGradient id="paint0_linear_3938_24126" x1="112.119" y1="41.6387" x2="112.119" y2="264.142" gradientUnits="userSpaceOnUse">
<stop offset="0.0757908" stop-color="#6676FF"/>
<stop offset="1" stop-color="#A850FF"/>
</linearGradient>
<linearGradient id="paint1_linear_3938_24126" x1="1171.01" y1="599.226" x2="1171.01" y2="-48.221" gradientUnits="userSpaceOnUse">
<stop offset="0.566377" stop-color="#A850FF"/>
<stop offset="0.741484" stop-color="#6676FF"/>
</linearGradient>
<clipPath id="clip0_3938_24126">
<rect x="0.867188" y="41.6387" width="222.503" height="222.503" rx="34.5154" fill="white"/>
</clipPath>
</defs>
</svg>
