<svg width="1800" height="200" viewBox="0 0 1800 200" fill="none" xmlns="http://www.w3.org/2000/svg">
<g clip-path="url(#clip0_1_2)">
<rect x="-129" y="199.698" width="257.95" height="52.8924" transform="rotate(-61.0413 -129 199.698)" fill="#fff"/>
<rect x="-4" y="199.698" width="257.95" height="52.8924" transform="rotate(-61.0413 -4 199.698)" fill="#fff"/>
<rect x="121" y="199.698" width="257.95" height="52.8924" transform="rotate(-61.0413 121 199.698)" fill="#fff"/>
<rect x="246" y="199.698" width="257.95" height="52.8924" transform="rotate(-61.0413 246 199.698)" fill="#fff"/>
<rect x="371" y="199.698" width="257.95" height="52.8924" transform="rotate(-61.0413 371 199.698)" fill="#fff"/>
<rect x="496" y="199.698" width="257.95" height="52.8924" transform="rotate(-61.0413 496 199.698)" fill="#fff"/>
<rect x="621" y="199.698" width="257.95" height="52.8924" transform="rotate(-61.0413 621 199.698)" fill="#fff"/>
<rect x="746" y="199.698" width="257.95" height="52.8924" transform="rotate(-61.0413 746 199.698)" fill="#fff"/>
<rect x="871" y="199.698" width="257.95" height="52.8924" transform="rotate(-61.0413 871 199.698)" fill="#fff"/>
<rect x="996" y="199.698" width="257.95" height="52.8924" transform="rotate(-61.0413 996 199.698)" fill="#fff"/>
<rect x="1121" y="199.698" width="257.95" height="52.8924" transform="rotate(-61.0413 1121 199.698)" fill="#fff"/>
<rect x="1246" y="199.698" width="257.95" height="52.8924" transform="rotate(-61.0413 1246 199.698)" fill="#fff"/>
<rect x="1371" y="199.698" width="257.95" height="52.8924" transform="rotate(-61.0413 1371 199.698)" fill="#fff"/>
<rect x="1496" y="199.698" width="257.95" height="52.8924" transform="rotate(-61.0413 1496 199.698)" fill="#fff"/>
<rect x="1621" y="199.698" width="257.95" height="52.8924" transform="rotate(-61.0413 1621 199.698)" fill="#fff"/>
<rect x="1757" y="199.698" width="257.95" height="52.8924" transform="rotate(-61.0413 1757 199.698)" fill="#fff"/>
</g>
<defs>
<clipPath id="clip0_1_2">
<rect width="1800" height="200" fill="transparent"/>
</clipPath>
</defs>
</svg>
